Coordinates
version=1
nRows=8
nColumns=63
inDegrees=yes

Units are S.I. units (second, meters, Newtons, ...)
If the header above contains a line with 'inDegrees', this indicates whether rotational values are in degrees (yes) or radians (no).

endheader
time	pelvis_tilt	pelvis_list	pelvis_rotation	pelvis_tx	pelvis_ty	pelvis_tz	hip_flexion_r	hip_adduction_r	hip_rotation_r	knee_angle_r	knee_angle_r_beta	ankle_angle_r	subtalar_angle_r	mtp_angle_r	hip_flexion_l	hip_adduction_l	hip_rotation_l	knee_angle_l	knee_angle_l_beta	ankle_angle_l	subtalar_angle_l	mtp_angle_l	L5_S1_Flex_Ext	L5_S1_Lat_Bending	L5_S1_axial_rotation	L4_L5_Flex_Ext	L4_L5_Lat_Bending	L4_L5_axial_rotation	L3_L4_Flex_Ext	L3_L4_Lat_Bending	L3_L4_axial_rotation	L2_L3_Flex_Ext	L2_L3_Lat_Bending	L2_L3_axial_rotation	L1_L2_Flex_Ext	L1_L2_Lat_Bending	L1_L2_axial_rotation	L1_T12_Flex_Ext	L1_T12_Lat_Bending	L1_T12_axial_rotation	Abs_r3	Abs_r2	Abs_r1	Abs_t1	Abs_t2	neck_flexion	neck_bending	neck_rotation	arm_flex_r	arm_add_r	arm_rot_r	elbow_flex_r	pro_sup_r	wrist_flex_r	wrist_dev_r	arm_flex_l	arm_add_l	arm_rot_l	elbow_flex_l	pro_sup_l	wrist_flex_l	wrist_dev_l
      1.77551020	     -2.46645113	     -0.66485026	     82.44306671	      0.24268583	      0.77567912	      0.68974007	      0.57471387	      3.68360379	     22.55337242	     12.91347730	      0.22538270	     27.53716541	    -14.88641350	      0.00000000	      4.48987878	     -2.69603165	      7.57538715	     18.54063673	      0.32359516	     37.64353663	    -15.57943076	      0.00000000	     -0.02258521	     -0.12694863	     -1.47213750	     -0.04194300	     -0.16884168	     -1.56414610	     -0.03710525	     -0.30866290	     -1.56414610	     -0.02581264	     -0.30866290	     -1.28812032	     -0.02097263	     -0.25887365	     -1.19611172	     -0.01290519	     -0.19664343	     -1.10410313	     -0.16132393	     -1.43606829	     -8.18758716	      0.00000000	      0.00000000	     24.24394630	      3.72136327	      6.39723970	     -1.77460146	    -18.18071475	     50.70167475	     33.48238272	     73.22126274	     -0.55019940	      4.19198984	      4.52602757	    -11.81152443	    185.10137974	      0.82825984	     18.92899388	    -14.82688793	      1.32565290
      1.79591837	     -2.36045778	     -0.70558235	     82.04238202	      0.24288178	      0.77451393	      0.69066886	      1.06798310	      3.94577912	     23.11330250	     13.74801250	      0.23994808	     27.75233131	    -15.33911209	      0.00000000	      4.73017288	     -2.82141871	      7.07711735	     19.05547929	      0.33258085	     38.20667773	    -15.51887041	      0.00000000	     -0.03815234	     -0.10760204	     -1.50771350	     -0.07085271	     -0.14311071	     -1.60194560	     -0.06268048	     -0.26162359	     -1.60194560	     -0.04360431	     -0.26162359	     -1.31924932	     -0.03542826	     -0.21942208	     -1.22501722	     -0.02180025	     -0.16667556	     -1.13078513	     -0.27251835	     -1.21721577	     -8.38545019	      0.00000000	      0.00000000	     24.06765854	      3.62743143	      6.98720572	     -2.31709529	    -17.89296172	     48.27571463	     33.52306185	     73.59790151	      0.34871675	      5.17482961	      4.70962098	    -11.92767833	    184.02015366	      0.83394301	     21.18004493	    -15.00633010	      1.27761312
      1.81632653	     -2.18859374	     -0.63639497	     81.71361441	      0.24308236	      0.77400297	      0.69148973	      1.16118255	      4.14917046	     23.36324376	     14.00098827	      0.24436334	     27.79486547	    -15.25636210	      0.00000000	      4.62865406	     -2.98409793	      6.81432218	     19.20291375	      0.33515407	     38.26701983	    -15.63764962	      0.00000000	     -0.06863995	     -0.08827446	     -1.54303278	     -0.12747124	     -0.11740503	     -1.63947233	     -0.11276857	     -0.21463053	     -1.63947233	     -0.07844859	     -0.21463053	     -1.35015369	     -0.06373905	     -0.18000928	     -1.25371414	     -0.03922087	     -0.13673714	     -1.15727459	     -0.49028827	     -0.99857837	     -8.58188543	      0.00000000	      0.00000000	     23.76686372	      3.36258756	      7.31156073	     -2.40375180	    -17.45780126	     47.39911800	     32.89820107	     73.38168137	     -0.00122163	      5.22636112	      4.92533099	    -12.03135418	    183.78864822	      0.91327356	     21.43459164	    -14.86107233	      1.24384720
      1.83673469	     -2.16808172	     -0.89537955	     80.61662234	      0.24412345	      0.77329697	      0.69261322	      1.66744500	      4.28667410	     24.55526038	     14.30317883	      0.24963756	     27.72486942	    -15.45101672	      0.00000000	      4.53500579	     -3.16267474	      5.32250679	     18.84836723	      0.32896607	     38.23552831	    -15.14285797	      0.00000000	     -0.06434354	     -0.07186667	     -1.34410311	     -0.11949240	     -0.09558267	     -1.42810955	     -0.10571001	     -0.17473661	     -1.42810955	     -0.07353824	     -0.17473661	     -1.17609022	     -0.05974942	     -0.14655051	     -1.09208377	     -0.03676590	     -0.11132147	     -1.00807733	     -0.45959951	     -0.81297011	     -7.47549825	      0.00000000	      0.00000000	     24.06455009	      3.05268538	      7.54832919	     -4.01271225	    -16.57400848	     41.22547946	     32.94730848	     77.13737563	     -0.12143567	      5.73918995	      5.31395892	    -11.97364044	    179.27868592	      1.06926881	     25.47899029	    -13.66985928	      0.65568440
      1.85714286	     -2.15980743	     -1.23063232	     79.67407412	      0.24495073	      0.77325713	      0.69412036	      2.11013098	      4.32447459	     25.15776882	     14.18793535	      0.24762619	     27.69921871	    -14.96125660	      0.00000000	      4.47727030	     -3.24518764	      4.55185852	     18.33466546	      0.32000028	     37.57432227	    -15.42375272	      0.00000000	     -0.05990848	     -0.05703814	     -1.23737483	     -0.11125605	     -0.07586073	     -1.31471076	     -0.09842365	     -0.13868254	     -1.31471076	     -0.06846941	     -0.13868254	     -1.08270298	     -0.05563102	     -0.11631218	     -1.00536705	     -0.03423171	     -0.08835208	     -0.92803113	     -0.42792032	     -0.64522687	     -6.88190762	      0.00000000	      0.00000000	     24.45452818	      2.82461859	      7.97064487	     -4.36734994	    -15.97985372	     40.03546115	     32.09507736	     76.76273099	     -1.62451376	      4.40254550	      5.53916898	    -11.93800150	    177.74624521	      1.25075896	     24.54504083	    -12.86724995	      0.53895576
      1.87755102	     -2.17827834	     -1.74214142	     78.51717514	      0.24583512	      0.77343667	      0.69599884	      2.74359391	      4.35863984	     25.95397975	     13.97143923	      0.24384762	     27.61276823	    -14.32708716	      0.00000000	      4.52175595	     -3.35980240	      3.48344907	     17.63781376	      0.30783792	     36.74360584	    -15.61246031	      0.00000000	     -0.04211634	     -0.03343661	     -1.14252635	     -0.07821425	     -0.04447069	     -1.21393425	     -0.06919293	     -0.08129778	     -1.21393425	     -0.04813476	     -0.08129778	     -0.99971056	     -0.03910923	     -0.06818394	     -0.92830266	     -0.02406527	     -0.05179331	     -0.85689477	     -0.30083277	     -0.37824164	     -6.35438883	      0.00000000	      0.00000000	     25.14964646	      2.62351706	      8.76447846	     -4.56784802	    -15.46598832	     39.31246626	     31.15483964	     76.70886377	     -3.07692091	      3.13722611	      5.58113324	    -11.83026641	    175.24237749	      1.38454914	     22.68526723	    -12.17915166	      0.48402317
      1.89795918	     -2.21229262	     -2.36767994	     77.25204540	      0.24648183	      0.77385771	      0.69826114	      3.52312360	      4.39444979	     26.77611462	     13.66578179	      0.23851289	     27.42498280	    -13.57004434	      0.00000000	      4.69379766	     -3.48912896	      2.26752303	     16.91290208	      0.29518583	     35.89023809	    -15.80041632	      0.00000000	     -0.01467099	      0.00154950	     -1.06076483	     -0.02724549	      0.00206084	     -1.12706263	     -0.02410296	      0.00376746	     -1.12706263	     -0.01676747	      0.00376746	     -0.92816923	     -0.01362348	      0.00315974	     -0.86187143	     -0.00838300	      0.00240018	     -0.79557362	     -0.10479339	      0.01752827	     -5.89965576	      0.00000000	      0.00000000	     25.92262602	      2.34801661	      9.88664232	     -4.63409988	    -15.11412881	     39.13395600	     30.10854765	     76.77895187	     -4.23434873	      2.31122901	      5.49369651	    -11.65898552	    171.58712622	      1.39484092	     19.68947485	    -11.84287412	      0.02436931
      1.91836735	     -2.28688248	     -2.99557433	     75.85807863	      0.24712426	      0.77447031	      0.70072418	      4.34009113	      4.41317220	     27.65727783	     13.35246793	      0.23304453	     27.28160422	    -12.62147195	      0.00000000	      4.89304612	     -3.60593654	      0.93566386	     16.18204518	      0.28242997	     35.10706809	    -15.94221968	      0.00000000	      0.01628851	      0.03523766	     -0.96731812	      0.03024940	      0.04686608	     -1.02777551	      0.02676040	      0.08567684	     -1.02777551	      0.01861614	      0.08567684	     -0.84640336	      0.01512551	      0.07185663	     -0.78594597	      0.00930726	      0.05458313	     -0.72548859	      0.11634721	      0.39861543	     -5.37993320	      0.00000000	      0.00000000	     26.72488370	      2.36103798	     11.00271828	     -4.60684263	    -14.98121721	     39.72065761	     29.05217854	     76.88468787	     -5.08260298	      1.94857780	      5.32055882	    -11.54137033	    166.25147342	      1.29995733	     15.18707163	    -11.54008035	     -1.83380269
